<svg xmlns="http://www.w3.org/2000/svg" viewBox="0 0 28 28">
  <rect width="28" height="28" rx="4" fill="#0d0d14"/>
  <!-- P shape (purple) -->
  <rect x="8"  y="8"  width="3" height="3" rx="0.5" fill="#818cf8"/>
  <rect x="12" y="8"  width="3" height="3" rx="0.5" fill="#818cf8"/>
  <rect x="16" y="8"  width="3" height="3" rx="0.5" fill="#818cf8"/>
  <rect x="8"  y="12" width="3" height="3" rx="0.5" fill="#818cf8"/>
  <rect x="16" y="12" width="3" height="3" rx="0.5" fill="#818cf8"/>
  <rect x="8"  y="16" width="3" height="3" rx="0.5" fill="#818cf8"/>
  <rect x="12" y="16" width="3" height="3" rx="0.5" fill="#818cf8"/>
  <rect x="16" y="16" width="3" height="3" rx="0.5" fill="#818cf8"/>
  <rect x="8"  y="20" width="3" height="3" rx="0.5" fill="#818cf8"/>
  <rect x="8"  y="24" width="3" height="3" rx="0.5" fill="#818cf8"/>
  <!-- Dot (cyan) -->
  <rect x="24" y="8"  width="3" height="3" rx="0.5" fill="#22d3ee"/>
  <rect x="24" y="24" width="3" height="3" rx="0.5" fill="#22d3ee"/>
</svg>
